<?xml version="1.0" encoding="UTF-8" standalone="no"?>
<!-- Created with Inkscape (http://www.inkscape.org/) -->

<svg
   xmlns:dc="http://purl.org/dc/elements/1.1/"
   xmlns:cc="http://creativecommons.org/ns#"
   xmlns:rdf="http://www.w3.org/1999/02/22-rdf-syntax-ns#"
   xmlns:svg="http://www.w3.org/2000/svg"
   xmlns="http://www.w3.org/2000/svg"
   xmlns:sodipodi="http://sodipodi.sourceforge.net/DTD/sodipodi-0.dtd"
   xmlns:inkscape="http://www.inkscape.org/namespaces/inkscape"
   version="1.1"
   id="svg29"
   width="31"
   height="45"
   viewBox="0 0 31 45"
   sodipodi:docname="MapIcon_1_Question_SVG.svg"
   inkscape:version="0.92.4 (5da689c313, 2019-01-14)">
  <metadata
     id="metadata35">
    <rdf:RDF>
      <cc:Work
         rdf:about="">
        <dc:format>image/svg+xml</dc:format>
        <dc:type
           rdf:resource="http://purl.org/dc/dcmitype/StillImage" />
        <dc:title></dc:title>
      </cc:Work>
    </rdf:RDF>
  </metadata>
  <defs
     id="defs33" />
  <sodipodi:namedview
     pagecolor="#ffffff"
     bordercolor="#666666"
     borderopacity="1"
     objecttolerance="10"
     gridtolerance="10"
     guidetolerance="10"
     inkscape:pageopacity="0"
     inkscape:pageshadow="2"
     inkscape:window-width="1920"
     inkscape:window-height="1017"
     id="namedview31"
     showgrid="false"
     inkscape:zoom="14.75"
     inkscape:cx="-9.1619148"
     inkscape:cy="27.853674"
     inkscape:window-x="-8"
     inkscape:window-y="-8"
     inkscape:window-maximized="1"
     inkscape:current-layer="svg29" />
  <ellipse
     style="fill:#ffffff;stroke-width:0.21287772"
     id="path41"
     cx="15.635593"
     cy="15.381356"
     rx="14.315884"
     ry="14.371052" />
  <path
     style="fill:#000000;stroke-width:0.06509728"
     d="m 11.637738,36.4609 -3.8293438,-7.95814 -0.36692,-0.22417 c -0.635394,-0.3882 -1.597871,-1.1466 -2.288389,-1.80317 -2.029588,-1.9298 -3.478755,-4.36557 -4.17407906,-7.01583 -0.390719,-1.48924 -0.479004,-2.20412 -0.479004,-3.87864 0,-1.67452 0.08828,-2.38939 0.479004,-3.87863 C 2.3310692,6.54887 6.4679192,2.41202 11.621368,1.05996 c 1.48924,-0.39072 2.20411,-0.47901 3.87863,-0.47901 1.67452,0 2.3894,0.0883 3.87864,0.47901 5.15345,1.35206 9.2903,5.48891 10.64236,10.64236 0.39072,1.48924 0.479,2.20411 0.479,3.87863 0,1.67452 -0.0883,2.3894 -0.479,3.87864 -0.69533,2.65026 -2.14449,5.08603 -4.17408,7.01583 -0.69052,0.65657 -1.65299,1.41497 -2.28839,1.80317 l -0.36692,0.22417 -3.82935,7.95814 c -2.10614,4.37698 -3.84416,7.95815 -3.86226,7.95815 -0.0181,0 -1.75611,-3.58117 -3.86226,-7.95815 z m 5.97792,-8.01878 c 1.35043,-0.24248 2.26638,-0.53671 3.46977,-1.11459 1.48747,-0.71429 2.58759,-1.5037 3.72784,-2.67498 1.09052,-1.12019 1.75276,-2.06897 2.43331,-3.48617 0.58005,-1.20791 0.86647,-2.10117 1.12298,-3.50232 0.16009,-0.8744 0.16009,-3.29182 0,-4.16622 -0.25651,-1.40115 -0.54293,-2.2944 -1.12298,-3.50232 -0.68055,-1.41719 -1.34279,-2.36598 -2.43331,-3.48616 -1.14025,-1.17128 -2.24037,-1.9607 -3.72784,-2.67499 -1.20791,-0.58005 -2.10117,-0.86646 -3.50231,-1.12298 -0.87441,-0.16008 -3.29183,-0.16008 -4.16623,0 -1.40114,0.25652 -2.2944,0.54293 -3.5023198,1.12298 -1.48746,0.71429 -2.587578,1.50371 -3.727837,2.67499 -1.090517,1.12018 -1.752761,2.06897 -2.433309,3.48616 -0.580051,1.20792 -0.866465,2.10117 -1.122982,3.50232 -0.160084,0.8744 -0.160084,3.29182 0,4.16622 0.256517,1.40115 0.542931,2.29441 1.122982,3.50232 0.680548,1.4172 1.342792,2.36598 2.433309,3.48617 2.114204,2.17172 4.8039268,3.50665 7.8160368,3.87915 0.72383,0.0895 2.91855,0.0351 3.61289,-0.0896 z m -3.20599,-3.06697 c -0.69573,-0.18734 -1.25662,-0.59563 -1.63487,-1.19007 -0.47194,-0.74166 -0.53494,-1.82221 -0.15374,-2.63681 0.61063,-1.3049 2.13046,-1.91634 3.49464,-1.40594 0.47747,0.17864 1.11472,0.76765 1.39066,1.28536 1.10321,2.06984 -0.84532,4.55371 -3.09669,3.94746 z m 0.29748,-6.76034 c -0.70675,-0.1903 -1.05833,-0.7105 -1.06053,-1.56917 -0.002,-0.79648 0.178,-1.27606 0.88225,-2.34997 0.32637,-0.49769 0.69099,-1.09784 0.81028,-1.33366 0.72436,-1.43208 0.47237,-2.85865 -0.50495,-2.85865 -0.45575,0 -0.64511,0.2864 -0.76413,1.15565 -0.2082,1.52058 -0.89154,2.32015 -2.18985,2.56232 -1.36886,0.25533 -2.4365998,-0.51713 -2.4332998,-1.76037 10e-4,-0.50821 0.15397,-1.09953 0.42027,-1.62834 0.8536898,-1.69521 2.5124398,-2.70294 4.8516898,-2.94753 1.96675,-0.20564 4.25932,0.55279 5.53893,1.8324 1.59079,1.59079 1.70437,3.74441 0.26844,5.09008 -0.35348,0.33126 -0.65979,0.52663 -1.51305,0.96504 -0.60204,0.30934 -1.19135,0.6617 -1.34773,0.80585 -0.1737,0.16011 -0.40464,0.49853 -0.61597,0.90263 -0.19247,0.36804 -0.44149,0.7399 -0.57817,0.86339 -0.37408,0.33796 -1.09993,0.44919 -1.76418,0.27033 z"
     id="path39"
     inkscape:connector-curvature="0" />
</svg>
